# xmcd CD database file generated by Grip 3.2.0
# 
# Track frame offsets:
#       150
#       12654
#       29103
#       49456
#       70347
#       83540
#       100067
#       114352
#       123877
#       138303
#       158486
#       165567
#       183618
# 
# Disc length: 2566 seconds
# 
# Revision: 3
# Processed by: cddbd v1.5.1PL2 Copyright (c) Steve Scherf et al.
# Submitted via: Grip 3.2.0
# 
DISCID=aa0a040d
DTITLE=Chumbawamba - A Singsong And A Scrap
DYEAR=2005
DGENRE=Indie
TTITLE0=Laughter In A Time Of War
TTITLE1=William Francis
TTITLE2=By and By
TTITLE3=You Can (Mass Trespass, 1932)
TTITLE4=Walking Into Battle With The Lord
TTITLE5=When Alexander Met Emma
TTITLE6=Fade Away (I Don't Want To)
TTITLE7=Bank Robber
TTITLE8=Learning To Love
TTITLE9=Land Of Do What You're Told
TTITLE10=Bella Ciao
TTITLE11=Smith and Taylor
TTITLE12=A Singsong and A Crap (Bonus Track)
EXTD=YEAR: 2005
EXTT0=
EXTT1=
EXTT2=
EXTT3=
EXTT4=
EXTT5=
EXTT6=
EXTT7=
EXTT8=
EXTT9=
EXTT10=
EXTT11=
EXTT12=
PLAYORDER=
